<svg width="151" height="151" viewBox="0 0 151 151" fill="none" xmlns="http://www.w3.org/2000/svg">
<path d="M0 40C0 17.9086 17.9086 0 40 0H111C133.091 0 151 17.9086 151 40V111C151 133.091 133.091 151 111 151H40C17.9086 151 0 133.091 0 111V40Z" fill="#222222"/>
<path fill-rule="evenodd" clip-rule="evenodd" d="M117.307 102.944L114.781 105.846C110.943 110.257 106.225 113.74 100.687 116.309L100.665 116.319L100.643 116.329C94.9795 118.873 88.5735 120.09 81.5141 120.09C75.0544 120.09 68.9881 119.025 63.3546 116.852L63.3456 116.848L63.3365 116.845C57.8114 114.683 52.9593 111.619 48.8228 107.644L48.8083 107.63L48.7938 107.616C44.6561 103.56 41.4292 98.746 39.1066 93.2198C36.7523 87.6183 35.6041 81.5108 35.6041 74.95C35.6041 68.2563 36.7475 62.073 39.1066 56.4601L39.1161 56.4375L39.1258 56.4151C41.5303 50.8848 44.8461 46.1324 49.086 42.2147C53.303 38.2447 58.2361 35.2222 63.8414 33.1403C69.4568 31.0546 75.4691 30.03 81.8441 30.03C87.8252 30.03 93.6799 31.1067 99.3877 33.2431C105.275 35.3451 110.192 38.5157 113.993 42.8235L116.48 45.6412L97.7525 64.3685L94.9992 60.5827C93.6903 58.783 91.9836 57.4423 89.7859 56.5406C87.3938 55.5593 84.9753 55.08 82.5041 55.08C79.7209 55.08 77.2398 55.6026 75.0076 56.6012L74.9847 56.6115L74.9618 56.6214C72.7466 57.5793 70.8585 58.9106 69.2617 60.6256C67.6651 62.3405 66.3903 64.4121 65.4594 66.8945L65.4535 66.9102L65.4475 66.9259C64.5444 69.2741 64.0641 71.9334 64.0641 74.95C64.0641 78.0492 64.5474 80.7933 65.4594 83.2255C66.3918 85.7118 67.6324 87.7841 69.154 89.4956C70.743 91.1297 72.6295 92.4276 74.8518 93.3885C77.0196 94.326 79.4432 94.82 82.1741 94.82C85.3864 94.82 87.9875 94.1927 90.1011 93.0803C92.389 91.8762 94.1331 90.3644 95.4261 88.5654L98.0908 84.858L117.307 102.944ZM98.0141 37C92.7341 35.02 87.3441 34.03 81.8441 34.03C75.9041 34.03 70.3675 34.9833 65.2341 36.89C60.1008 38.7966 55.6275 41.5466 51.8141 45.14C48.0008 48.66 44.9941 52.95 42.7941 58.01C40.6675 63.07 39.6041 68.7166 39.6041 74.95C39.6041 81.0366 40.6675 86.61 42.7941 91.67C44.9208 96.73 47.8541 101.093 51.5941 104.76C55.3341 108.353 59.7341 111.14 64.7941 113.12C69.9275 115.1 75.5008 116.09 81.5141 116.09C88.1141 116.09 93.9441 114.953 99.0041 112.68C102.776 110.931 106.099 108.733 108.975 106.088C109.266 105.82 109.553 105.547 109.835 105.27C110.504 104.612 111.147 103.929 111.764 103.22L98.6741 90.9C97.8962 91.9823 97.0013 92.971 95.9894 93.8661C94.8073 94.9118 93.4655 95.8298 91.9641 96.62C89.1775 98.0866 85.9141 98.82 82.1741 98.82C78.9475 98.82 75.9775 98.2333 73.2641 97.06C70.5508 95.8866 68.2041 94.2733 66.2241 92.22C64.3175 90.0933 62.8141 87.5633 61.7141 84.63C60.6141 81.6966 60.0641 78.47 60.0641 74.95C60.0641 71.5033 60.6141 68.35 61.7141 65.49C62.8141 62.5566 64.3541 60.0266 66.3341 57.9C68.3141 55.7733 70.6608 54.1233 73.3741 52.95C76.1608 51.7033 79.2041 51.08 82.5041 51.08C85.5108 51.08 88.4441 51.6666 91.3041 52.84C92.8636 53.4797 94.2595 54.3049 95.492 55.3153C96.5197 56.158 97.4338 57.1295 98.2341 58.23L110.994 45.47C110.247 44.6232 109.447 43.8233 108.595 43.0705C108.443 42.9365 108.289 42.8039 108.134 42.6729C105.313 40.289 101.94 38.3981 98.0141 37Z" fill="white"/>
</svg>
