<svg width="336" height="102" viewBox="0 0 336 102" fill="none" xmlns="http://www.w3.org/2000/svg">
<path d="M0.930664 0.353516H30.7451L41.4922 57.1396L57.1621 0.353516H86.9072L102.646 57.1396L113.394 0.353516H143.069L120.674 102H89.8887L72.0693 38.0029L54.3193 102H23.5342L0.930664 0.353516Z" fill="black"/>
<path d="M146.231 0.353516H230.405V22.0557H177.71V38.2109H226.591V58.9424H177.71V78.9805H231.93V102H146.231V0.353516Z" fill="black"/>
<path d="M241.887 0.353516H300.684C310.483 0.353516 317.995 2.78027 323.218 7.63379C328.487 12.4873 331.122 18.4964 331.122 25.6611C331.122 31.6702 329.25 36.8242 325.506 41.123C323.01 43.9889 319.358 46.2539 314.551 47.918C321.854 49.6745 327.216 52.7021 330.637 57.001C334.104 61.2536 335.837 66.6156 335.837 73.0869C335.837 78.3564 334.612 83.0944 332.162 87.3008C329.712 91.5072 326.361 94.8353 322.109 97.2852C319.474 98.8105 315.499 99.9199 310.183 100.613C303.111 101.538 298.419 102 296.108 102H241.887V0.353516ZM273.573 40.2217H287.233C292.132 40.2217 295.53 39.3896 297.425 37.7256C299.366 36.0153 300.337 33.5654 300.337 30.376C300.337 27.4176 299.366 25.1064 297.425 23.4424C295.53 21.7783 292.202 20.9463 287.441 20.9463H273.573V40.2217ZM273.573 80.1592H289.59C294.998 80.1592 298.812 79.2116 301.03 77.3164C303.249 75.375 304.359 72.7865 304.359 69.5508C304.359 66.5462 303.249 64.1426 301.03 62.3398C298.858 60.4909 295.021 59.5664 289.521 59.5664H273.573V80.1592Z" fill="black"/>
</svg>
